<mxfile host="app.diagrams.net" modified="2024-05-19T01:40:20.679Z" agent="Mozilla/5.0 (Windows NT 10.0; Win64; x64) AppleWebKit/537.36 (KHTML, like Gecko) Chrome/124.0.0.0 Safari/537.36 Edg/124.0.0.0" etag="QNqcxrqiQDMu4yoZ184F" version="24.4.4" type="github">
  <diagram id="R2lEEEUBdFMjLlhIrx00" name="Page-1">
    <mxGraphModel dx="1216" dy="599" grid="1" gridSize="10" guides="1" tooltips="1" connect="1" arrows="1" fold="1" page="1" pageScale="1" pageWidth="850" pageHeight="1100" math="0" shadow="0" extFonts="Permanent Marker^https://fonts.googleapis.com/css?family=Permanent+Marker">
      <root>
        <mxCell id="0" />
        <mxCell id="1" parent="0" />
        <mxCell id="9Y9bUt2Y01w_E76THrgY-1" value="管理员" style="whiteSpace=wrap;html=1;align=center;" vertex="1" parent="1">
          <mxGeometry x="510" y="460" width="100" height="40" as="geometry" />
        </mxCell>
        <mxCell id="9Y9bUt2Y01w_E76THrgY-2" value="主键" style="ellipse;whiteSpace=wrap;html=1;align=center;" vertex="1" parent="1">
          <mxGeometry x="640" y="370" width="100" height="40" as="geometry" />
        </mxCell>
        <mxCell id="9Y9bUt2Y01w_E76THrgY-3" value="账号" style="ellipse;whiteSpace=wrap;html=1;align=center;" vertex="1" parent="1">
          <mxGeometry x="680" y="460" width="100" height="40" as="geometry" />
        </mxCell>
        <mxCell id="9Y9bUt2Y01w_E76THrgY-4" value="密码" style="ellipse;whiteSpace=wrap;html=1;align=center;" vertex="1" parent="1">
          <mxGeometry x="640" y="550" width="100" height="40" as="geometry" />
        </mxCell>
        <mxCell id="9Y9bUt2Y01w_E76THrgY-8" value="" style="endArrow=none;html=1;rounded=0;entryX=0.5;entryY=0;entryDx=0;entryDy=0;" edge="1" parent="1" target="9Y9bUt2Y01w_E76THrgY-4">
          <mxGeometry relative="1" as="geometry">
            <mxPoint x="610" y="480" as="sourcePoint" />
            <mxPoint x="770" y="480" as="targetPoint" />
          </mxGeometry>
        </mxCell>
        <mxCell id="9Y9bUt2Y01w_E76THrgY-9" value="" style="endArrow=none;html=1;rounded=0;" edge="1" parent="1">
          <mxGeometry relative="1" as="geometry">
            <mxPoint x="610" y="480" as="sourcePoint" />
            <mxPoint x="680" y="480" as="targetPoint" />
          </mxGeometry>
        </mxCell>
        <mxCell id="9Y9bUt2Y01w_E76THrgY-10" value="" style="endArrow=none;html=1;rounded=0;entryX=0.5;entryY=1;entryDx=0;entryDy=0;" edge="1" parent="1" target="9Y9bUt2Y01w_E76THrgY-2">
          <mxGeometry relative="1" as="geometry">
            <mxPoint x="610" y="479.5" as="sourcePoint" />
            <mxPoint x="770" y="479.5" as="targetPoint" />
          </mxGeometry>
        </mxCell>
        <mxCell id="9Y9bUt2Y01w_E76THrgY-11" value="材料" style="whiteSpace=wrap;html=1;align=center;" vertex="1" parent="1">
          <mxGeometry x="270" y="200" width="100" height="40" as="geometry" />
        </mxCell>
        <mxCell id="9Y9bUt2Y01w_E76THrgY-12" value="主键" style="ellipse;whiteSpace=wrap;html=1;align=center;" vertex="1" parent="1">
          <mxGeometry x="450" y="240" width="100" height="40" as="geometry" />
        </mxCell>
        <mxCell id="9Y9bUt2Y01w_E76THrgY-13" value="名称" style="ellipse;whiteSpace=wrap;html=1;align=center;" vertex="1" parent="1">
          <mxGeometry x="70" y="150" width="100" height="40" as="geometry" />
        </mxCell>
        <mxCell id="9Y9bUt2Y01w_E76THrgY-16" value="资源编号" style="ellipse;whiteSpace=wrap;html=1;align=center;" vertex="1" parent="1">
          <mxGeometry x="70" y="240" width="100" height="40" as="geometry" />
        </mxCell>
        <mxCell id="9Y9bUt2Y01w_E76THrgY-17" value="位置" style="ellipse;whiteSpace=wrap;html=1;align=center;" vertex="1" parent="1">
          <mxGeometry x="140" y="320" width="100" height="40" as="geometry" />
        </mxCell>
        <mxCell id="9Y9bUt2Y01w_E76THrgY-18" value="类别" style="ellipse;whiteSpace=wrap;html=1;align=center;" vertex="1" parent="1">
          <mxGeometry x="250" y="330" width="100" height="40" as="geometry" />
        </mxCell>
        <mxCell id="9Y9bUt2Y01w_E76THrgY-19" value="品牌" style="ellipse;whiteSpace=wrap;html=1;align=center;" vertex="1" parent="1">
          <mxGeometry x="370" y="330" width="100" height="40" as="geometry" />
        </mxCell>
        <mxCell id="9Y9bUt2Y01w_E76THrgY-20" value="数量" style="ellipse;whiteSpace=wrap;html=1;align=center;" vertex="1" parent="1">
          <mxGeometry x="460" y="300" width="100" height="40" as="geometry" />
        </mxCell>
        <mxCell id="9Y9bUt2Y01w_E76THrgY-21" value="详细参数" style="ellipse;whiteSpace=wrap;html=1;align=center;" vertex="1" parent="1">
          <mxGeometry x="450" y="80" width="100" height="40" as="geometry" />
        </mxCell>
        <mxCell id="9Y9bUt2Y01w_E76THrgY-22" value="采购时间" style="ellipse;whiteSpace=wrap;html=1;align=center;" vertex="1" parent="1">
          <mxGeometry x="325" y="50" width="100" height="40" as="geometry" />
        </mxCell>
        <mxCell id="9Y9bUt2Y01w_E76THrgY-23" value="备注" style="ellipse;whiteSpace=wrap;html=1;align=center;" vertex="1" parent="1">
          <mxGeometry x="450" y="130" width="100" height="40" as="geometry" />
        </mxCell>
        <mxCell id="9Y9bUt2Y01w_E76THrgY-24" value="所有人" style="ellipse;whiteSpace=wrap;html=1;align=center;" vertex="1" parent="1">
          <mxGeometry x="100" y="90" width="100" height="40" as="geometry" />
        </mxCell>
        <mxCell id="9Y9bUt2Y01w_E76THrgY-25" value="创建时间" style="ellipse;whiteSpace=wrap;html=1;align=center;" vertex="1" parent="1">
          <mxGeometry x="190" y="50" width="100" height="40" as="geometry" />
        </mxCell>
        <mxCell id="9Y9bUt2Y01w_E76THrgY-27" value="" style="endArrow=none;html=1;rounded=0;entryX=0.5;entryY=1;entryDx=0;entryDy=0;exitX=0.5;exitY=0;exitDx=0;exitDy=0;" edge="1" parent="1" source="9Y9bUt2Y01w_E76THrgY-11" target="9Y9bUt2Y01w_E76THrgY-22">
          <mxGeometry relative="1" as="geometry">
            <mxPoint x="310" y="200" as="sourcePoint" />
            <mxPoint x="470" y="200" as="targetPoint" />
          </mxGeometry>
        </mxCell>
        <mxCell id="9Y9bUt2Y01w_E76THrgY-28" value="" style="endArrow=none;html=1;rounded=0;exitX=0.5;exitY=1;exitDx=0;exitDy=0;entryX=0.5;entryY=0;entryDx=0;entryDy=0;" edge="1" parent="1" source="9Y9bUt2Y01w_E76THrgY-25" target="9Y9bUt2Y01w_E76THrgY-11">
          <mxGeometry relative="1" as="geometry">
            <mxPoint x="240" y="110" as="sourcePoint" />
            <mxPoint x="400" y="110" as="targetPoint" />
          </mxGeometry>
        </mxCell>
        <mxCell id="9Y9bUt2Y01w_E76THrgY-29" value="" style="endArrow=none;html=1;rounded=0;entryX=0;entryY=0.5;entryDx=0;entryDy=0;exitX=0.5;exitY=0;exitDx=0;exitDy=0;" edge="1" parent="1" source="9Y9bUt2Y01w_E76THrgY-11" target="9Y9bUt2Y01w_E76THrgY-21">
          <mxGeometry relative="1" as="geometry">
            <mxPoint x="350" y="170" as="sourcePoint" />
            <mxPoint x="500" y="180" as="targetPoint" />
          </mxGeometry>
        </mxCell>
        <mxCell id="9Y9bUt2Y01w_E76THrgY-30" value="" style="endArrow=none;html=1;rounded=0;entryX=0.5;entryY=1;entryDx=0;entryDy=0;exitX=0.5;exitY=0;exitDx=0;exitDy=0;" edge="1" parent="1" source="9Y9bUt2Y01w_E76THrgY-11" target="9Y9bUt2Y01w_E76THrgY-24">
          <mxGeometry relative="1" as="geometry">
            <mxPoint x="340" y="190" as="sourcePoint" />
            <mxPoint x="500" y="190" as="targetPoint" />
          </mxGeometry>
        </mxCell>
        <mxCell id="9Y9bUt2Y01w_E76THrgY-31" value="" style="endArrow=none;html=1;rounded=0;exitX=1;exitY=0.5;exitDx=0;exitDy=0;entryX=0.5;entryY=0;entryDx=0;entryDy=0;" edge="1" parent="1" source="9Y9bUt2Y01w_E76THrgY-13" target="9Y9bUt2Y01w_E76THrgY-11">
          <mxGeometry relative="1" as="geometry">
            <mxPoint x="190" y="249.5" as="sourcePoint" />
            <mxPoint x="270" y="220" as="targetPoint" />
          </mxGeometry>
        </mxCell>
        <mxCell id="9Y9bUt2Y01w_E76THrgY-32" value="" style="endArrow=none;html=1;rounded=0;exitX=1;exitY=0.5;exitDx=0;exitDy=0;entryX=0.5;entryY=1;entryDx=0;entryDy=0;" edge="1" parent="1" source="9Y9bUt2Y01w_E76THrgY-16" target="9Y9bUt2Y01w_E76THrgY-11">
          <mxGeometry relative="1" as="geometry">
            <mxPoint x="170" y="270" as="sourcePoint" />
            <mxPoint x="330" y="270" as="targetPoint" />
          </mxGeometry>
        </mxCell>
        <mxCell id="9Y9bUt2Y01w_E76THrgY-33" value="" style="endArrow=none;html=1;rounded=0;exitX=0.5;exitY=0;exitDx=0;exitDy=0;entryX=0.5;entryY=1;entryDx=0;entryDy=0;" edge="1" parent="1" source="9Y9bUt2Y01w_E76THrgY-17" target="9Y9bUt2Y01w_E76THrgY-11">
          <mxGeometry relative="1" as="geometry">
            <mxPoint x="230" y="290" as="sourcePoint" />
            <mxPoint x="390" y="290" as="targetPoint" />
          </mxGeometry>
        </mxCell>
        <mxCell id="9Y9bUt2Y01w_E76THrgY-34" value="" style="endArrow=none;html=1;rounded=0;entryX=0.5;entryY=0;entryDx=0;entryDy=0;" edge="1" parent="1" target="9Y9bUt2Y01w_E76THrgY-18">
          <mxGeometry relative="1" as="geometry">
            <mxPoint x="320" y="240" as="sourcePoint" />
            <mxPoint x="500" y="270" as="targetPoint" />
          </mxGeometry>
        </mxCell>
        <mxCell id="9Y9bUt2Y01w_E76THrgY-35" value="" style="endArrow=none;html=1;rounded=0;entryX=0.5;entryY=0;entryDx=0;entryDy=0;" edge="1" parent="1" target="9Y9bUt2Y01w_E76THrgY-19">
          <mxGeometry relative="1" as="geometry">
            <mxPoint x="320" y="240" as="sourcePoint" />
            <mxPoint x="500" y="190" as="targetPoint" />
          </mxGeometry>
        </mxCell>
        <mxCell id="9Y9bUt2Y01w_E76THrgY-36" value="" style="endArrow=none;html=1;rounded=0;entryX=0;entryY=0.5;entryDx=0;entryDy=0;exitX=0.5;exitY=1;exitDx=0;exitDy=0;" edge="1" parent="1" source="9Y9bUt2Y01w_E76THrgY-11" target="9Y9bUt2Y01w_E76THrgY-20">
          <mxGeometry relative="1" as="geometry">
            <mxPoint x="340" y="190" as="sourcePoint" />
            <mxPoint x="500" y="190" as="targetPoint" />
          </mxGeometry>
        </mxCell>
        <mxCell id="9Y9bUt2Y01w_E76THrgY-37" value="" style="endArrow=none;html=1;rounded=0;entryX=0;entryY=0.5;entryDx=0;entryDy=0;exitX=0.5;exitY=1;exitDx=0;exitDy=0;" edge="1" parent="1" source="9Y9bUt2Y01w_E76THrgY-11" target="9Y9bUt2Y01w_E76THrgY-12">
          <mxGeometry relative="1" as="geometry">
            <mxPoint x="340" y="190" as="sourcePoint" />
            <mxPoint x="500" y="190" as="targetPoint" />
          </mxGeometry>
        </mxCell>
        <mxCell id="9Y9bUt2Y01w_E76THrgY-38" value="" style="endArrow=none;html=1;rounded=0;entryX=0;entryY=0.5;entryDx=0;entryDy=0;" edge="1" parent="1" target="9Y9bUt2Y01w_E76THrgY-23">
          <mxGeometry relative="1" as="geometry">
            <mxPoint x="320" y="200" as="sourcePoint" />
            <mxPoint x="500" y="190" as="targetPoint" />
          </mxGeometry>
        </mxCell>
        <mxCell id="9Y9bUt2Y01w_E76THrgY-43" value="借出" style="shape=rhombus;perimeter=rhombusPerimeter;whiteSpace=wrap;html=1;align=center;" vertex="1" parent="1">
          <mxGeometry x="630" y="190" width="120" height="60" as="geometry" />
        </mxCell>
        <mxCell id="9Y9bUt2Y01w_E76THrgY-45" value="" style="endArrow=none;html=1;rounded=0;entryX=0;entryY=0.5;entryDx=0;entryDy=0;" edge="1" parent="1" target="9Y9bUt2Y01w_E76THrgY-43">
          <mxGeometry relative="1" as="geometry">
            <mxPoint x="370" y="220" as="sourcePoint" />
            <mxPoint x="530" y="220" as="targetPoint" />
          </mxGeometry>
        </mxCell>
        <mxCell id="9Y9bUt2Y01w_E76THrgY-46" value="1" style="edgeLabel;html=1;align=center;verticalAlign=middle;resizable=0;points=[];" vertex="1" connectable="0" parent="9Y9bUt2Y01w_E76THrgY-45">
          <mxGeometry x="0.1538" relative="1" as="geometry">
            <mxPoint as="offset" />
          </mxGeometry>
        </mxCell>
        <mxCell id="9Y9bUt2Y01w_E76THrgY-47" value="租借" style="whiteSpace=wrap;html=1;align=center;" vertex="1" parent="1">
          <mxGeometry x="970" y="200" width="100" height="40" as="geometry" />
        </mxCell>
        <mxCell id="9Y9bUt2Y01w_E76THrgY-48" value="" style="endArrow=none;html=1;rounded=0;entryX=0;entryY=0.5;entryDx=0;entryDy=0;" edge="1" parent="1" target="9Y9bUt2Y01w_E76THrgY-47">
          <mxGeometry relative="1" as="geometry">
            <mxPoint x="750" y="220" as="sourcePoint" />
            <mxPoint x="880" y="220" as="targetPoint" />
          </mxGeometry>
        </mxCell>
        <mxCell id="9Y9bUt2Y01w_E76THrgY-49" value="N" style="edgeLabel;html=1;align=center;verticalAlign=middle;resizable=0;points=[];" vertex="1" connectable="0" parent="9Y9bUt2Y01w_E76THrgY-48">
          <mxGeometry x="0.0857" relative="1" as="geometry">
            <mxPoint as="offset" />
          </mxGeometry>
        </mxCell>
        <mxCell id="9Y9bUt2Y01w_E76THrgY-50" value="主键" style="ellipse;whiteSpace=wrap;html=1;align=center;" vertex="1" parent="1">
          <mxGeometry x="820" y="280" width="100" height="40" as="geometry" />
        </mxCell>
        <mxCell id="9Y9bUt2Y01w_E76THrgY-51" value="材料主键" style="ellipse;whiteSpace=wrap;html=1;align=center;" vertex="1" parent="1">
          <mxGeometry x="910" y="320" width="100" height="40" as="geometry" />
        </mxCell>
        <mxCell id="9Y9bUt2Y01w_E76THrgY-52" value="数量" style="ellipse;whiteSpace=wrap;html=1;align=center;" vertex="1" parent="1">
          <mxGeometry x="1030" y="320" width="100" height="40" as="geometry" />
        </mxCell>
        <mxCell id="9Y9bUt2Y01w_E76THrgY-53" value="借用人" style="ellipse;whiteSpace=wrap;html=1;align=center;" vertex="1" parent="1">
          <mxGeometry x="1110" y="270" width="100" height="40" as="geometry" />
        </mxCell>
        <mxCell id="9Y9bUt2Y01w_E76THrgY-54" value="联系电话" style="ellipse;whiteSpace=wrap;html=1;align=center;" vertex="1" parent="1">
          <mxGeometry x="1025" y="90" width="100" height="40" as="geometry" />
        </mxCell>
        <mxCell id="9Y9bUt2Y01w_E76THrgY-55" value="开始日期" style="ellipse;whiteSpace=wrap;html=1;align=center;" vertex="1" parent="1">
          <mxGeometry x="905" y="90" width="100" height="40" as="geometry" />
        </mxCell>
        <mxCell id="9Y9bUt2Y01w_E76THrgY-56" value="归还日期" style="ellipse;whiteSpace=wrap;html=1;align=center;" vertex="1" parent="1">
          <mxGeometry x="825" y="130" width="100" height="40" as="geometry" />
        </mxCell>
        <mxCell id="9Y9bUt2Y01w_E76THrgY-57" value="创建时间" style="ellipse;whiteSpace=wrap;html=1;align=center;" vertex="1" parent="1">
          <mxGeometry x="1115" y="140" width="100" height="40" as="geometry" />
        </mxCell>
        <mxCell id="9Y9bUt2Y01w_E76THrgY-58" value="" style="endArrow=none;html=1;rounded=0;entryX=0;entryY=0.5;entryDx=0;entryDy=0;exitX=0.5;exitY=0;exitDx=0;exitDy=0;" edge="1" parent="1" source="9Y9bUt2Y01w_E76THrgY-47" target="9Y9bUt2Y01w_E76THrgY-57">
          <mxGeometry relative="1" as="geometry">
            <mxPoint x="1130" y="240" as="sourcePoint" />
            <mxPoint x="1290" y="240" as="targetPoint" />
          </mxGeometry>
        </mxCell>
        <mxCell id="9Y9bUt2Y01w_E76THrgY-59" value="" style="endArrow=none;html=1;rounded=0;entryX=0.5;entryY=1;entryDx=0;entryDy=0;exitX=0.5;exitY=0;exitDx=0;exitDy=0;" edge="1" parent="1" source="9Y9bUt2Y01w_E76THrgY-47" target="9Y9bUt2Y01w_E76THrgY-54">
          <mxGeometry relative="1" as="geometry">
            <mxPoint x="900" y="169" as="sourcePoint" />
            <mxPoint x="1060" y="169" as="targetPoint" />
          </mxGeometry>
        </mxCell>
        <mxCell id="9Y9bUt2Y01w_E76THrgY-60" value="" style="endArrow=none;html=1;rounded=0;entryX=0.5;entryY=1;entryDx=0;entryDy=0;" edge="1" parent="1" target="9Y9bUt2Y01w_E76THrgY-55">
          <mxGeometry relative="1" as="geometry">
            <mxPoint x="1020" y="200" as="sourcePoint" />
            <mxPoint x="1000" y="169" as="targetPoint" />
          </mxGeometry>
        </mxCell>
        <mxCell id="9Y9bUt2Y01w_E76THrgY-61" value="" style="endArrow=none;html=1;rounded=0;exitX=1;exitY=0.5;exitDx=0;exitDy=0;entryX=0.5;entryY=0;entryDx=0;entryDy=0;" edge="1" parent="1" source="9Y9bUt2Y01w_E76THrgY-56" target="9Y9bUt2Y01w_E76THrgY-47">
          <mxGeometry relative="1" as="geometry">
            <mxPoint x="930" y="180" as="sourcePoint" />
            <mxPoint x="1090" y="180" as="targetPoint" />
          </mxGeometry>
        </mxCell>
        <mxCell id="9Y9bUt2Y01w_E76THrgY-62" value="" style="endArrow=none;html=1;rounded=0;exitX=0.5;exitY=0;exitDx=0;exitDy=0;entryX=0.5;entryY=1;entryDx=0;entryDy=0;" edge="1" parent="1" source="9Y9bUt2Y01w_E76THrgY-50" target="9Y9bUt2Y01w_E76THrgY-47">
          <mxGeometry relative="1" as="geometry">
            <mxPoint x="850" y="259.5" as="sourcePoint" />
            <mxPoint x="1010" y="259.5" as="targetPoint" />
          </mxGeometry>
        </mxCell>
        <mxCell id="9Y9bUt2Y01w_E76THrgY-63" value="" style="endArrow=none;html=1;rounded=0;exitX=0.5;exitY=0;exitDx=0;exitDy=0;entryX=0.5;entryY=1;entryDx=0;entryDy=0;" edge="1" parent="1" source="9Y9bUt2Y01w_E76THrgY-51" target="9Y9bUt2Y01w_E76THrgY-47">
          <mxGeometry relative="1" as="geometry">
            <mxPoint x="1005" y="289.5" as="sourcePoint" />
            <mxPoint x="1165" y="289.5" as="targetPoint" />
          </mxGeometry>
        </mxCell>
        <mxCell id="9Y9bUt2Y01w_E76THrgY-64" value="" style="endArrow=none;html=1;rounded=0;exitX=0.5;exitY=1;exitDx=0;exitDy=0;entryX=0.5;entryY=0;entryDx=0;entryDy=0;" edge="1" parent="1" source="9Y9bUt2Y01w_E76THrgY-47" target="9Y9bUt2Y01w_E76THrgY-52">
          <mxGeometry relative="1" as="geometry">
            <mxPoint x="1130" y="240" as="sourcePoint" />
            <mxPoint x="1290" y="240" as="targetPoint" />
          </mxGeometry>
        </mxCell>
        <mxCell id="9Y9bUt2Y01w_E76THrgY-65" value="" style="endArrow=none;html=1;rounded=0;entryX=0;entryY=0.5;entryDx=0;entryDy=0;exitX=0.5;exitY=1;exitDx=0;exitDy=0;" edge="1" parent="1" source="9Y9bUt2Y01w_E76THrgY-47" target="9Y9bUt2Y01w_E76THrgY-53">
          <mxGeometry relative="1" as="geometry">
            <mxPoint x="1030" y="240" as="sourcePoint" />
            <mxPoint x="1290" y="240" as="targetPoint" />
          </mxGeometry>
        </mxCell>
      </root>
    </mxGraphModel>
  </diagram>
</mxfile>
